<mxfile host="app.diagrams.net" agent="Mozilla/5.0 (Windows NT 10.0; Win64; x64) AppleWebKit/537.36 (KHTML, like Gecko) Chrome/135.0.0.0 Safari/537.36 Edg/135.0.0.0" version="26.2.14" pages="2">
  <diagram id="C5RBs43oDa-KdzZeNtuy" name="Diagrama de Classes Journey">
    <mxGraphModel dx="1418" dy="752" grid="1" gridSize="10" guides="1" tooltips="1" connect="1" arrows="1" fold="1" page="1" pageScale="1" pageWidth="827" pageHeight="1169" math="0" shadow="0">
      <root>
        <mxCell id="WIyWlLk6GJQsqaUBKTNV-0" />
        <mxCell id="WIyWlLk6GJQsqaUBKTNV-1" parent="WIyWlLk6GJQsqaUBKTNV-0" />
        <mxCell id="zkfFHV4jXpPFQw0GAbJ--0" value="JourneyKafkaDto" style="swimlane;fontStyle=2;align=center;verticalAlign=top;childLayout=stackLayout;horizontal=1;startSize=26;horizontalStack=0;resizeParent=1;resizeLast=0;collapsible=1;marginBottom=0;rounded=0;shadow=0;strokeWidth=1;" parent="WIyWlLk6GJQsqaUBKTNV-1" vertex="1">
          <mxGeometry x="100" y="64" width="160" height="90" as="geometry">
            <mxRectangle x="230" y="140" width="160" height="26" as="alternateBounds" />
          </mxGeometry>
        </mxCell>
        <mxCell id="zkfFHV4jXpPFQw0GAbJ--4" value="" style="line;html=1;strokeWidth=1;align=left;verticalAlign=middle;spacingTop=-1;spacingLeft=3;spacingRight=3;rotatable=0;labelPosition=right;points=[];portConstraint=eastwest;" parent="zkfFHV4jXpPFQw0GAbJ--0" vertex="1">
          <mxGeometry y="26" width="160" height="8" as="geometry" />
        </mxCell>
        <mxCell id="1Kg9zEBwKLZ1G0TrU4pE-10" style="edgeStyle=orthogonalEdgeStyle;rounded=0;orthogonalLoop=1;jettySize=auto;html=1;endArrow=open;endFill=0;" edge="1" parent="WIyWlLk6GJQsqaUBKTNV-1" source="zkfFHV4jXpPFQw0GAbJ--6" target="zkfFHV4jXpPFQw0GAbJ--13">
          <mxGeometry relative="1" as="geometry" />
        </mxCell>
        <mxCell id="1Kg9zEBwKLZ1G0TrU4pE-11" style="edgeStyle=orthogonalEdgeStyle;rounded=0;orthogonalLoop=1;jettySize=auto;html=1;endArrow=open;endFill=0;startFill=1;startArrow=diamond;" edge="1" parent="WIyWlLk6GJQsqaUBKTNV-1" source="zkfFHV4jXpPFQw0GAbJ--6" target="zkfFHV4jXpPFQw0GAbJ--17">
          <mxGeometry relative="1" as="geometry">
            <Array as="points">
              <mxPoint x="720" y="10" />
              <mxPoint x="450" y="10" />
            </Array>
          </mxGeometry>
        </mxCell>
        <mxCell id="1Kg9zEBwKLZ1G0TrU4pE-12" value="1" style="edgeLabel;html=1;align=center;verticalAlign=middle;resizable=0;points=[];" vertex="1" connectable="0" parent="1Kg9zEBwKLZ1G0TrU4pE-11">
          <mxGeometry x="-0.1765" y="2" relative="1" as="geometry">
            <mxPoint as="offset" />
          </mxGeometry>
        </mxCell>
        <mxCell id="1Kg9zEBwKLZ1G0TrU4pE-13" value="N" style="edgeLabel;html=1;align=center;verticalAlign=middle;resizable=0;points=[];" vertex="1" connectable="0" parent="1Kg9zEBwKLZ1G0TrU4pE-11">
          <mxGeometry x="0.4439" y="-2" relative="1" as="geometry">
            <mxPoint as="offset" />
          </mxGeometry>
        </mxCell>
        <mxCell id="1Kg9zEBwKLZ1G0TrU4pE-14" value="0..1" style="edgeLabel;html=1;align=center;verticalAlign=middle;resizable=0;points=[];" vertex="1" connectable="0" parent="1Kg9zEBwKLZ1G0TrU4pE-11">
          <mxGeometry x="-0.2032" relative="1" as="geometry">
            <mxPoint as="offset" />
          </mxGeometry>
        </mxCell>
        <mxCell id="zkfFHV4jXpPFQw0GAbJ--6" value="JourneyFlowChronoCard" style="swimlane;fontStyle=0;align=center;verticalAlign=top;childLayout=stackLayout;horizontal=1;startSize=26;horizontalStack=0;resizeParent=1;resizeLast=0;collapsible=1;marginBottom=0;rounded=0;shadow=0;strokeWidth=1;" parent="WIyWlLk6GJQsqaUBKTNV-1" vertex="1">
          <mxGeometry x="640" y="79" width="160" height="80" as="geometry">
            <mxRectangle x="130" y="380" width="160" height="26" as="alternateBounds" />
          </mxGeometry>
        </mxCell>
        <mxCell id="zkfFHV4jXpPFQw0GAbJ--9" value="" style="line;html=1;strokeWidth=1;align=left;verticalAlign=middle;spacingTop=-1;spacingLeft=3;spacingRight=3;rotatable=0;labelPosition=right;points=[];portConstraint=eastwest;" parent="zkfFHV4jXpPFQw0GAbJ--6" vertex="1">
          <mxGeometry y="26" width="160" height="8" as="geometry" />
        </mxCell>
        <mxCell id="1Kg9zEBwKLZ1G0TrU4pE-15" style="edgeStyle=orthogonalEdgeStyle;rounded=0;orthogonalLoop=1;jettySize=auto;html=1;endArrow=open;endFill=0;startArrow=diamond;startFill=1;" edge="1" parent="WIyWlLk6GJQsqaUBKTNV-1" source="zkfFHV4jXpPFQw0GAbJ--13" target="zkfFHV4jXpPFQw0GAbJ--17">
          <mxGeometry relative="1" as="geometry" />
        </mxCell>
        <mxCell id="1Kg9zEBwKLZ1G0TrU4pE-16" value="onCondTrue" style="edgeLabel;html=1;align=center;verticalAlign=middle;resizable=0;points=[];" vertex="1" connectable="0" parent="1Kg9zEBwKLZ1G0TrU4pE-15">
          <mxGeometry x="0.7714" relative="1" as="geometry">
            <mxPoint as="offset" />
          </mxGeometry>
        </mxCell>
        <mxCell id="1Kg9zEBwKLZ1G0TrU4pE-17" style="edgeStyle=orthogonalEdgeStyle;rounded=0;orthogonalLoop=1;jettySize=auto;html=1;endArrow=open;endFill=0;startArrow=diamond;startFill=1;" edge="1" parent="WIyWlLk6GJQsqaUBKTNV-1" source="zkfFHV4jXpPFQw0GAbJ--13" target="zkfFHV4jXpPFQw0GAbJ--17">
          <mxGeometry relative="1" as="geometry">
            <Array as="points">
              <mxPoint x="510" y="289" />
            </Array>
          </mxGeometry>
        </mxCell>
        <mxCell id="1Kg9zEBwKLZ1G0TrU4pE-18" value="onCondFalse" style="edgeLabel;html=1;align=center;verticalAlign=middle;resizable=0;points=[];" vertex="1" connectable="0" parent="1Kg9zEBwKLZ1G0TrU4pE-17">
          <mxGeometry x="0.6471" y="-2" relative="1" as="geometry">
            <mxPoint as="offset" />
          </mxGeometry>
        </mxCell>
        <mxCell id="zkfFHV4jXpPFQw0GAbJ--13" value="JourneyFlowConditionCard " style="swimlane;fontStyle=0;align=center;verticalAlign=top;childLayout=stackLayout;horizontal=1;startSize=26;horizontalStack=0;resizeParent=1;resizeLast=0;collapsible=1;marginBottom=0;rounded=0;shadow=0;strokeWidth=1;" parent="WIyWlLk6GJQsqaUBKTNV-1" vertex="1">
          <mxGeometry x="640" y="254" width="160" height="70" as="geometry">
            <mxRectangle x="340" y="380" width="170" height="26" as="alternateBounds" />
          </mxGeometry>
        </mxCell>
        <mxCell id="zkfFHV4jXpPFQw0GAbJ--15" value="" style="line;html=1;strokeWidth=1;align=left;verticalAlign=middle;spacingTop=-1;spacingLeft=3;spacingRight=3;rotatable=0;labelPosition=right;points=[];portConstraint=eastwest;" parent="zkfFHV4jXpPFQw0GAbJ--13" vertex="1">
          <mxGeometry y="26" width="160" height="8" as="geometry" />
        </mxCell>
        <mxCell id="1Kg9zEBwKLZ1G0TrU4pE-7" style="edgeStyle=elbowEdgeStyle;rounded=0;orthogonalLoop=1;jettySize=auto;html=1;elbow=horizontal;endArrow=open;endFill=0;startArrow=diamond;startFill=1;" edge="1" parent="WIyWlLk6GJQsqaUBKTNV-1" source="zkfFHV4jXpPFQw0GAbJ--17" target="zkfFHV4jXpPFQw0GAbJ--6">
          <mxGeometry relative="1" as="geometry" />
        </mxCell>
        <mxCell id="1Kg9zEBwKLZ1G0TrU4pE-8" value="1" style="edgeLabel;html=1;align=center;verticalAlign=middle;resizable=0;points=[];" vertex="1" connectable="0" parent="1Kg9zEBwKLZ1G0TrU4pE-7">
          <mxGeometry x="-0.5091" y="3" relative="1" as="geometry">
            <mxPoint as="offset" />
          </mxGeometry>
        </mxCell>
        <mxCell id="1Kg9zEBwKLZ1G0TrU4pE-9" value="N" style="edgeLabel;html=1;align=center;verticalAlign=middle;resizable=0;points=[];" vertex="1" connectable="0" parent="1Kg9zEBwKLZ1G0TrU4pE-7">
          <mxGeometry x="0.2909" y="4" relative="1" as="geometry">
            <mxPoint as="offset" />
          </mxGeometry>
        </mxCell>
        <mxCell id="zkfFHV4jXpPFQw0GAbJ--17" value="JourneyFlowCard" style="swimlane;fontStyle=0;align=center;verticalAlign=top;childLayout=stackLayout;horizontal=1;startSize=26;horizontalStack=0;resizeParent=1;resizeLast=0;collapsible=1;marginBottom=0;rounded=0;shadow=0;strokeWidth=1;" parent="WIyWlLk6GJQsqaUBKTNV-1" vertex="1">
          <mxGeometry x="370" y="74" width="160" height="90" as="geometry">
            <mxRectangle x="550" y="140" width="160" height="26" as="alternateBounds" />
          </mxGeometry>
        </mxCell>
        <mxCell id="zkfFHV4jXpPFQw0GAbJ--23" value="" style="line;html=1;strokeWidth=1;align=left;verticalAlign=middle;spacingTop=-1;spacingLeft=3;spacingRight=3;rotatable=0;labelPosition=right;points=[];portConstraint=eastwest;" parent="zkfFHV4jXpPFQw0GAbJ--17" vertex="1">
          <mxGeometry y="26" width="160" height="8" as="geometry" />
        </mxCell>
        <mxCell id="zkfFHV4jXpPFQw0GAbJ--26" value="" style="endArrow=open;shadow=0;strokeWidth=1;rounded=0;curved=0;endFill=1;edgeStyle=elbowEdgeStyle;elbow=vertical;startArrow=diamond;startFill=1;" parent="WIyWlLk6GJQsqaUBKTNV-1" source="zkfFHV4jXpPFQw0GAbJ--0" target="zkfFHV4jXpPFQw0GAbJ--17" edge="1">
          <mxGeometry x="0.5" y="41" relative="1" as="geometry">
            <mxPoint x="260" y="136" as="sourcePoint" />
            <mxPoint x="420" y="136" as="targetPoint" />
            <mxPoint x="-40" y="32" as="offset" />
          </mxGeometry>
        </mxCell>
        <mxCell id="zkfFHV4jXpPFQw0GAbJ--27" value="0..1" style="resizable=0;align=left;verticalAlign=bottom;labelBackgroundColor=none;fontSize=12;" parent="zkfFHV4jXpPFQw0GAbJ--26" connectable="0" vertex="1">
          <mxGeometry x="-1" relative="1" as="geometry">
            <mxPoint y="4" as="offset" />
          </mxGeometry>
        </mxCell>
        <mxCell id="zkfFHV4jXpPFQw0GAbJ--28" value="1" style="resizable=0;align=right;verticalAlign=bottom;labelBackgroundColor=none;fontSize=12;" parent="zkfFHV4jXpPFQw0GAbJ--26" connectable="0" vertex="1">
          <mxGeometry x="1" relative="1" as="geometry">
            <mxPoint x="-7" y="4" as="offset" />
          </mxGeometry>
        </mxCell>
      </root>
    </mxGraphModel>
  </diagram>
  <diagram name="Desenho Jornada com Back" id="QY0e1oWz_NWg6PsJSU7Z">
    <mxGraphModel dx="1418" dy="1921" grid="1" gridSize="10" guides="1" tooltips="1" connect="1" arrows="1" fold="1" page="1" pageScale="1" pageWidth="827" pageHeight="1169" math="0" shadow="0">
      <root>
        <mxCell id="HsCFxOGYkvxDGaH6NJR9-0" />
        <mxCell id="HsCFxOGYkvxDGaH6NJR9-1" parent="HsCFxOGYkvxDGaH6NJR9-0" />
        <mxCell id="q4417ZdJkvilkfgulP48-4" value="" style="edgeStyle=orthogonalEdgeStyle;rounded=0;orthogonalLoop=1;jettySize=auto;html=1;" edge="1" parent="HsCFxOGYkvxDGaH6NJR9-1" source="q4417ZdJkvilkfgulP48-0" target="q4417ZdJkvilkfgulP48-1">
          <mxGeometry relative="1" as="geometry" />
        </mxCell>
        <mxCell id="q4417ZdJkvilkfgulP48-0" value="Inicie sua Jornada" style="rounded=0;whiteSpace=wrap;html=1;" vertex="1" parent="HsCFxOGYkvxDGaH6NJR9-1">
          <mxGeometry x="340" y="-60" width="120" height="60" as="geometry" />
        </mxCell>
        <mxCell id="q4417ZdJkvilkfgulP48-5" value="" style="edgeStyle=orthogonalEdgeStyle;rounded=0;orthogonalLoop=1;jettySize=auto;html=1;" edge="1" parent="HsCFxOGYkvxDGaH6NJR9-1" source="q4417ZdJkvilkfgulP48-1" target="q4417ZdJkvilkfgulP48-2">
          <mxGeometry relative="1" as="geometry" />
        </mxCell>
        <mxCell id="q4417ZdJkvilkfgulP48-6" style="edgeStyle=orthogonalEdgeStyle;rounded=0;orthogonalLoop=1;jettySize=auto;html=1;" edge="1" parent="HsCFxOGYkvxDGaH6NJR9-1" source="q4417ZdJkvilkfgulP48-1" target="q4417ZdJkvilkfgulP48-3">
          <mxGeometry relative="1" as="geometry" />
        </mxCell>
        <mxCell id="q4417ZdJkvilkfgulP48-1" value="Enviar Email&lt;div&gt;&lt;br&gt;&lt;/div&gt;&lt;div&gt;(JourneyFlow)&lt;/div&gt;" style="rounded=1;whiteSpace=wrap;html=1;" vertex="1" parent="HsCFxOGYkvxDGaH6NJR9-1">
          <mxGeometry x="340" y="30" width="120" height="60" as="geometry" />
        </mxCell>
        <mxCell id="q4417ZdJkvilkfgulP48-2" value="Prazo de&amp;nbsp;&lt;div&gt;&lt;br&gt;&lt;/div&gt;&lt;div&gt;(ChronoCard)&lt;/div&gt;" style="whiteSpace=wrap;html=1;rounded=1;" vertex="1" parent="HsCFxOGYkvxDGaH6NJR9-1">
          <mxGeometry x="340" y="120" width="120" height="60" as="geometry" />
        </mxCell>
        <mxCell id="q4417ZdJkvilkfgulP48-3" value="Carimbar&amp;nbsp;&lt;div&gt;&lt;b&gt;Data de Envio&lt;/b&gt;&lt;/div&gt;&lt;div&gt;&lt;b&gt;&lt;br&gt;&lt;/b&gt;&lt;/div&gt;&lt;div&gt;&lt;b&gt;(JourneyFlow)&lt;/b&gt;&lt;/div&gt;" style="rounded=0;whiteSpace=wrap;html=1;fillColor=#f8cecc;strokeColor=#b85450;" vertex="1" parent="HsCFxOGYkvxDGaH6NJR9-1">
          <mxGeometry x="160" y="100" width="120" height="60" as="geometry" />
        </mxCell>
        <mxCell id="q4417ZdJkvilkfgulP48-7" value="1. Ler do tópico &quot;communication-tracking-sended-topic&quot;&lt;div style=&quot;&quot;&gt;&lt;span style=&quot;background-color: transparent; color: light-dark(rgb(0, 0, 0), rgb(255, 255, 255));&quot;&gt;2. Pegar o log SMTP caso seja EMAIL&quot;&lt;/span&gt;&lt;/div&gt;&lt;div&gt;&lt;span style=&quot;background-color: transparent; color: light-dark(rgb(0, 0, 0), rgb(255, 255, 255));&quot;&gt;3. Gerar nova mensagem no kafka para chamar o Carimbador (&lt;/span&gt;&lt;span style=&quot;background-color: transparent; color: light-dark(rgb(0, 0, 0), rgb(255, 255, 255));&quot;&gt;Enviar o timestamp como data para carimbar)&lt;/span&gt;&lt;/div&gt;" style="text;html=1;align=left;verticalAlign=middle;whiteSpace=wrap;rounded=0;" vertex="1" parent="HsCFxOGYkvxDGaH6NJR9-1">
          <mxGeometry x="135" y="560" width="370" height="100" as="geometry" />
        </mxCell>
        <mxCell id="q4417ZdJkvilkfgulP48-14" value="" style="edgeStyle=orthogonalEdgeStyle;rounded=0;orthogonalLoop=1;jettySize=auto;html=1;" edge="1" parent="HsCFxOGYkvxDGaH6NJR9-1" source="q4417ZdJkvilkfgulP48-9" target="q4417ZdJkvilkfgulP48-7">
          <mxGeometry relative="1" as="geometry" />
        </mxCell>
        <mxCell id="q4417ZdJkvilkfgulP48-16" style="edgeStyle=orthogonalEdgeStyle;rounded=0;orthogonalLoop=1;jettySize=auto;html=1;" edge="1" parent="HsCFxOGYkvxDGaH6NJR9-1" source="q4417ZdJkvilkfgulP48-9">
          <mxGeometry relative="1" as="geometry">
            <mxPoint x="420" y="330" as="targetPoint" />
          </mxGeometry>
        </mxCell>
        <mxCell id="q4417ZdJkvilkfgulP48-30" style="edgeStyle=orthogonalEdgeStyle;rounded=0;orthogonalLoop=1;jettySize=auto;html=1;" edge="1" parent="HsCFxOGYkvxDGaH6NJR9-1" source="q4417ZdJkvilkfgulP48-9" target="q4417ZdJkvilkfgulP48-10">
          <mxGeometry relative="1" as="geometry" />
        </mxCell>
        <mxCell id="q4417ZdJkvilkfgulP48-31" value="&lt;div&gt;&lt;br&gt;&lt;/div&gt;&lt;div&gt;&lt;br&gt;&lt;/div&gt;&lt;div&gt;&lt;br&gt;&lt;/div&gt;&lt;div&gt;&lt;br&gt;&lt;/div&gt;&lt;div&gt;&lt;br&gt;&lt;/div&gt;&lt;div&gt;&lt;br&gt;&lt;/div&gt;Pegar log SMTP caso seja EMAIL" style="edgeLabel;html=1;align=center;verticalAlign=middle;resizable=0;points=[];" vertex="1" connectable="0" parent="q4417ZdJkvilkfgulP48-30">
          <mxGeometry x="-0.1857" relative="1" as="geometry">
            <mxPoint x="-73" y="10" as="offset" />
          </mxGeometry>
        </mxCell>
        <mxCell id="q4417ZdJkvilkfgulP48-9" value="journey-simple-flow-service" style="rounded=0;whiteSpace=wrap;html=1;" vertex="1" parent="HsCFxOGYkvxDGaH6NJR9-1">
          <mxGeometry x="260" y="440" width="120" height="60" as="geometry" />
        </mxCell>
        <mxCell id="q4417ZdJkvilkfgulP48-12" style="edgeStyle=orthogonalEdgeStyle;rounded=0;orthogonalLoop=1;jettySize=auto;html=1;" edge="1" parent="HsCFxOGYkvxDGaH6NJR9-1" source="q4417ZdJkvilkfgulP48-10" target="q4417ZdJkvilkfgulP48-11">
          <mxGeometry relative="1" as="geometry" />
        </mxCell>
        <mxCell id="q4417ZdJkvilkfgulP48-10" value="data-api" style="rounded=0;whiteSpace=wrap;html=1;" vertex="1" parent="HsCFxOGYkvxDGaH6NJR9-1">
          <mxGeometry x="50" y="440" width="120" height="60" as="geometry" />
        </mxCell>
        <mxCell id="q4417ZdJkvilkfgulP48-15" style="edgeStyle=orthogonalEdgeStyle;rounded=0;orthogonalLoop=1;jettySize=auto;html=1;" edge="1" parent="HsCFxOGYkvxDGaH6NJR9-1" source="q4417ZdJkvilkfgulP48-11" target="q4417ZdJkvilkfgulP48-9">
          <mxGeometry relative="1" as="geometry" />
        </mxCell>
        <mxCell id="q4417ZdJkvilkfgulP48-11" value="&lt;span style=&quot;text-align: left;&quot;&gt;communication-tracking-sended-topic&lt;/span&gt;" style="ellipse;shape=cloud;whiteSpace=wrap;html=1;" vertex="1" parent="HsCFxOGYkvxDGaH6NJR9-1">
          <mxGeometry x="90" y="270" width="165" height="80" as="geometry" />
        </mxCell>
        <mxCell id="q4417ZdJkvilkfgulP48-17" value="&lt;span style=&quot;text-align: left;&quot;&gt;carimbar-data&lt;/span&gt;" style="ellipse;shape=cloud;whiteSpace=wrap;html=1;fillColor=#f8cecc;strokeColor=#b85450;" vertex="1" parent="HsCFxOGYkvxDGaH6NJR9-1">
          <mxGeometry x="354" y="250" width="120" height="80" as="geometry" />
        </mxCell>
        <mxCell id="q4417ZdJkvilkfgulP48-19" style="edgeStyle=orthogonalEdgeStyle;rounded=0;orthogonalLoop=1;jettySize=auto;html=1;" edge="1" parent="HsCFxOGYkvxDGaH6NJR9-1" source="q4417ZdJkvilkfgulP48-18" target="q4417ZdJkvilkfgulP48-17">
          <mxGeometry relative="1" as="geometry" />
        </mxCell>
        <mxCell id="q4417ZdJkvilkfgulP48-25" value="" style="edgeStyle=orthogonalEdgeStyle;rounded=0;orthogonalLoop=1;jettySize=auto;html=1;" edge="1" parent="HsCFxOGYkvxDGaH6NJR9-1" source="q4417ZdJkvilkfgulP48-18" target="q4417ZdJkvilkfgulP48-20">
          <mxGeometry relative="1" as="geometry" />
        </mxCell>
        <mxCell id="q4417ZdJkvilkfgulP48-18" value="valid-carimbador-datas-nmc" style="rounded=0;whiteSpace=wrap;html=1;fillColor=#f8cecc;strokeColor=#b85450;" vertex="1" parent="HsCFxOGYkvxDGaH6NJR9-1">
          <mxGeometry x="474" y="440" width="120" height="60" as="geometry" />
        </mxCell>
        <mxCell id="q4417ZdJkvilkfgulP48-23" value="" style="edgeStyle=orthogonalEdgeStyle;rounded=0;orthogonalLoop=1;jettySize=auto;html=1;" edge="1" parent="HsCFxOGYkvxDGaH6NJR9-1" source="q4417ZdJkvilkfgulP48-20" target="q4417ZdJkvilkfgulP48-22">
          <mxGeometry relative="1" as="geometry" />
        </mxCell>
        <mxCell id="q4417ZdJkvilkfgulP48-24" value="" style="edgeStyle=orthogonalEdgeStyle;rounded=0;orthogonalLoop=1;jettySize=auto;html=1;" edge="1" parent="HsCFxOGYkvxDGaH6NJR9-1" source="q4417ZdJkvilkfgulP48-20" target="q4417ZdJkvilkfgulP48-21">
          <mxGeometry relative="1" as="geometry" />
        </mxCell>
        <mxCell id="q4417ZdJkvilkfgulP48-27" style="edgeStyle=orthogonalEdgeStyle;rounded=0;orthogonalLoop=1;jettySize=auto;html=1;" edge="1" parent="HsCFxOGYkvxDGaH6NJR9-1" source="q4417ZdJkvilkfgulP48-20" target="q4417ZdJkvilkfgulP48-26">
          <mxGeometry relative="1" as="geometry">
            <Array as="points">
              <mxPoint x="740" y="360" />
            </Array>
          </mxGeometry>
        </mxCell>
        <mxCell id="q4417ZdJkvilkfgulP48-20" value="valid-carimbador-tst" style="rounded=0;whiteSpace=wrap;html=1;fillColor=#f8cecc;strokeColor=#b85450;" vertex="1" parent="HsCFxOGYkvxDGaH6NJR9-1">
          <mxGeometry x="670" y="440" width="120" height="60" as="geometry" />
        </mxCell>
        <mxCell id="q4417ZdJkvilkfgulP48-21" value="certificadora" style="rounded=0;whiteSpace=wrap;html=1;" vertex="1" parent="HsCFxOGYkvxDGaH6NJR9-1">
          <mxGeometry x="870" y="440" width="120" height="60" as="geometry" />
        </mxCell>
        <mxCell id="q4417ZdJkvilkfgulP48-22" value="MongoDB" style="shape=cylinder3;whiteSpace=wrap;html=1;boundedLbl=1;backgroundOutline=1;size=15;fillColor=#f8cecc;strokeColor=#b85450;" vertex="1" parent="HsCFxOGYkvxDGaH6NJR9-1">
          <mxGeometry x="700" y="530" width="60" height="80" as="geometry" />
        </mxCell>
        <mxCell id="q4417ZdJkvilkfgulP48-26" value="serpro" style="rounded=0;whiteSpace=wrap;html=1;" vertex="1" parent="HsCFxOGYkvxDGaH6NJR9-1">
          <mxGeometry x="870" y="340" width="120" height="60" as="geometry" />
        </mxCell>
      </root>
    </mxGraphModel>
  </diagram>
</mxfile>
